<svg width="240" height="80" viewBox="0 0 240 80" fill="none" xmlns="http://www.w3.org/2000/svg">
<g clip-path="url(#clip0_5942_59674)">
<path d="M137.544 43.514C137.544 50.5378 132.382 55.654 125.544 55.654C118.707 55.654 113.543 50.5378 113.543 43.514C113.543 36.4435 118.707 31.374 125.544 31.374C132.382 31.374 137.544 36.4435 137.544 43.514ZM131.358 43.514C131.358 39.188 128.567 37.0021 125.544 37.0021C122.521 37.0021 119.73 39.1904 119.73 43.514C119.73 47.7939 122.52 50.0266 125.544 50.0266C128.568 50.0266 131.358 47.8395 131.358 43.514H131.358Z" fill="#004EA8"/>
<path d="M147.776 54.9561H141.59V32.0687H147.59V34.9067C148.988 32.5361 151.73 31.4639 154.195 31.4639C159.87 31.4639 162.475 35.5109 162.475 40.5348V54.9543H156.288V41.6047C156.288 39.0462 155.032 37.0458 152.056 37.0458C149.358 37.0458 147.776 39.1392 147.776 41.7907V54.9561Z" fill="#004EA8"/>
<path d="M167.916 54.9562V21.2812H174.102V54.9562H167.916Z" fill="#004EA8"/>
<path d="M182.939 20.7217C185.04 20.7218 186.745 22.4202 186.753 24.5207C186.762 26.6212 185.07 28.3332 182.97 28.3501C180.869 28.367 179.151 26.6825 179.125 24.5821C179.112 23.5623 179.508 22.5798 180.225 21.8542C180.942 21.1287 181.919 20.7208 182.939 20.7217ZM179.869 54.9565V32.0727H186.056V54.9583L179.869 54.9565Z" fill="#004EA8"/>
<path d="M198.009 54.9561H191.823V32.0687H197.823V34.9067C199.221 32.5361 201.962 31.4639 204.428 31.4639C210.102 31.4639 212.707 35.5109 212.707 40.5348V54.9543H206.52V41.6047C206.52 39.0462 205.265 37.0458 202.287 37.0458C199.589 37.0458 198.008 39.1392 198.008 41.7907L198.009 54.9561Z" fill="#004EA8"/>
<path d="M238.661 48.3975C237.498 52.3485 233.871 55.654 228.242 55.654C221.963 55.654 216.427 51.142 216.427 43.421C216.427 36.1189 221.823 31.374 227.684 31.374C234.754 31.374 238.987 35.8861 238.987 43.235C238.987 44.1182 238.894 45.0489 238.894 45.1412H222.523C222.663 48.1647 225.221 50.3511 228.291 50.3511C231.175 50.3511 232.756 48.9093 233.501 46.8621L238.661 48.3975ZM232.893 40.9082C232.801 38.6299 231.313 36.3973 227.777 36.3973C225.142 36.299 222.893 38.2821 222.66 40.9082H232.893Z" fill="#004EA8"/>
<path d="M84.5939 20.1016C73.4526 20.1016 64.5421 27.0238 64.5421 38.1481C64.5421 49.2723 73.4526 56.1946 84.5939 56.1946C95.7352 56.1946 104.653 49.2681 104.653 38.1481C104.653 27.028 95.7419 20.1016 84.5939 20.1016ZM84.5939 51.8873C76.5605 51.8873 73.1736 45.4119 73.1736 38.1499C73.1736 30.8879 76.5557 24.4124 84.5939 24.4124C92.6321 24.4124 96.0136 30.8836 96.0136 38.1499C96.0136 45.4161 92.6273 51.8916 84.5939 51.8916V51.8873Z" fill="#FDB913"/>
<path d="M47.8146 21.126H34.2291V41.7589C32.8057 38.9235 30.0495 36.9962 26.8978 36.6323C29.7195 35.4246 31.5097 32.6079 31.4051 29.5405C31.4051 24.4564 28.0327 21.1308 20.0595 21.1308H0.709778V55.1377H21.8168C28.0904 55.1377 32.5594 53.3998 34.2279 49.3163V55.1377H47.8085C57.2716 55.1377 63.699 52.324 66.81 47.0174C63.7778 41.4837 63.7829 34.7845 66.8233 29.2554C63.7093 23.9397 57.2825 21.126 47.8146 21.126ZM8.83432 25.6332H16.8543C20.9658 25.6332 22.945 27.5668 22.945 30.5531C22.945 33.5395 20.9658 35.4713 16.8543 35.4713H8.83736V25.6332H8.83432ZM19.9009 50.6323H8.84161V39.9736H19.9009C24.3558 39.9736 26.4973 42.0616 26.4973 45.3027C26.4973 48.5437 24.3625 50.6335 19.9057 50.6335L19.9009 50.6323ZM46.8524 50.6323H42.3543V25.6332H46.8524C56.4753 25.6332 60.3522 30.9622 60.3522 38.1312C60.3522 45.3002 56.4814 50.6323 46.853 50.6323H46.8524Z" fill="#004EA8"/>
</g>
<defs>
<clipPath id="clip0_5942_59674">
<rect width="240" height="37.2816" fill="white" transform="translate(0 20)"/>
</clipPath>
</defs>
</svg>
